<?xml version="1.0" standalone="no"?>
<!DOCTYPE svg PUBLIC "-//W3C//DTD SVG 20010904//EN"
 "http://www.w3.org/TR/2001/REC-SVG-20010904/DTD/svg10.dtd">
<svg version="1.0" xmlns="http://www.w3.org/2000/svg"
 width="260.000000pt" height="260.000000pt" viewBox="0 0 260.000000 260.000000"
 preserveAspectRatio="xMidYMid meet">
<metadata>
Created by potrace 1.11, written by Peter Selinger 2001-2013
</metadata>
<g transform="translate(0.000000,260.000000) scale(0.100000,-0.100000)"
fill="#000000" stroke="none">
<path d="M142 2579 c-43 -13 -109 -82 -122 -128 -14 -51 -14 -2252 1 -2304 14
-50 77 -111 131 -126 32 -9 332 -11 1174 -9 l1130 3 41 27 c22 15 51 44 64 65
l24 38 0 1150 c0 1137 0 1150 -20 1189 -12 21 -40 53 -64 70 l-43 31 -1141 2
c-703 1 -1155 -2 -1175 -8z"/>
</g>
</svg>
